{"title":"The Walking Dead S04E09 HDTV 480p x264 AAC ESubs [GWC].mp4","uid":9596134,"size":215453396,"categoryP":"video","categoryS":"tv_shows","magnet":"?xt=urn:btih:b55c2aef956e0f59a9ee521c3317b764f7409857&amp;dn=The+Walking+Dead+S04E09+HDTV+480p+x264+AAC+ESubs+%5BGWC%5D.mp4&amp;tr=udp%3A%2F%2Ftracker.openbittorrent.com%3A80&amp;tr=udp%3A%2F%2Fopen.demonii.com%3A1337&amp;tr=udp%3A%2F%2Ftracker.coppersurfer.tk%3A6969&amp;tr=udp%3A%2F%2Fexodus.desync.com%3A6969","seeders":2,"leechers":0,"uploader":"canc232","files":1,"time":1392020146,"description":"The Walking Dead S04E09 HDTV 480p x264 AAC ESubs [GWC]\n\nStoryline\nRick Grimes is a former Sheriff's deputy who has been in a coma for several months after being shot while on duty. When he wakes, he discovers that the world has been taken over by zombies, and that he seems to be the only person still alive. After returning home to discover his wife and son missing, he heads for Atlanta to search for his family. Narrowly escaping death at the hands of the zombies on arrival in Atlanta, he is aided by another survivor Glenn who takes Rick to a camp outside the town. There Rick finds his wife Lori and son Carl, along with his partner/best friend Shane and a small group of survivors who struggle to fend off the zombie hordes; as well as competing with other survivor groups who are prepared to do whatever it takes to survive.\n\n\nSCREENS : &lt;a href=&quot;\nhttp://i.imgur.com/pXm9f8h.jpg&quot; rel=&quot;nofollow&quot; target=&quot;_NEW&quot;&gt;\nhttp://i.imgur.com/pXm9f8h.jpg&lt;/a&gt; &lt;a href=&quot;\nhttp://i.imgur.com/lrt71MJ.jpg&quot; rel=&quot;nofollow&quot; target=&quot;_NEW&quot;&gt;\nhttp://i.imgur.com/lrt71MJ.jpg&lt;/a&gt; &lt;a href=&quot;\nhttp://i.imgur.com/LW7Peat.jpg&quot; rel=&quot;nofollow&quot; target=&quot;_NEW&quot;&gt;\nhttp://i.imgur.com/LW7Peat.jpg&lt;/a&gt;\n\n\nMEDIA INFO :\nGeneral \nFormat : MPEG-4 \nFormat profile : Base Media \nCodec ID : isom \nFile size : 205 MiB \nDuration : 43mn 3s \nOverall bit rate mode : Variable \nOverall bit rate : 667 Kbps \n\nVideo\nFormat : AVC \nFormat profile : &lt;a class=&quot;__cf_email__&quot; href=&quot;/cdn-cgi/l/email-protection&quot; data-cfemail=&quot;94dcfdf3fcd4d8a7baa4&quot;&gt;[email&amp;#160;protected]&lt;/a&gt;&lt;script cf-hash='f9e31' type=&quot;text/javascript&quot;&gt;\n/* &lt;![CDATA[ */!function(){try{var t=&quot;currentScript&quot;in document?document.currentScript:function(){for(var t=document.getElementsByTagName(&quot;script&quot;),e=t.length;e--;)if(t[e].getAttribute(&quot;cf-hash&quot;))return t[e]}();if(t&amp;&amp;t.previousSibling){var e,r,n,i,c=t.previousSibling,a=c.getAttribute(&quot;data-cfemail&quot;);if(a){for(e=&quot;&quot;,r=parseInt(a.substr(0,2),16),n=2;a.length-n;n+=2)i=parseInt(a.substr(n,2),16)^r,e+=String.fromCharCode(i);e=document.createTextNode(e),c.parentNode.replaceChild(e,c)}}}catch(u){}}();/* ]]&gt; */&lt;/script&gt; \nFormat settings, CABAC : Yes \nFormat settings, ReFrames : 4 frames \nDuration : 43mn 2s \nBit rate : 604 Kbps \nMaximum bit rate : 2 383 Kbps \nWidth : 720 pixels \nHeight : 404 pixels \nDisplay aspect ratio : 16:9 \nFrame rate mode : Constant \nFrame rate : 23.976 fps\nStream size : 186 MiB (91%) \nTitle : The Walking Dead S04E09 HDTV 480p x264 AAC ESubs [GWC] \nWriting library : x264 core\n\nAudio \nFormat : AAC  \nFormat profile : HE-AAC / LC\nDuration : 43mn 3s \nBit rate mode : Variable \nChannel(s) : 2 channels \nSampling rate : 48.0 KHz / 24.0 KHz\nStream size : 18.5 MiB (9%) \nLanguage : English \n\nText \nFormat : Timed Text\nDuration : 42mn 42s \nBit rate mode : Variable \nTitle : English Subtitle by n17t01 \nLanguage : English ","torrent":{"xt":"urn:btih:b55c2aef956e0f59a9ee521c3317b764f7409857","amp;dn":"The+Walking+Dead+S04E09+HDTV+480p+x264+AAC+ESubs+%5BGWC%5D.mp4","amp;tr":["udp%3A%2F%2Ftracker.openbittorrent.com%3A80","udp%3A%2F%2Fopen.demonii.com%3A1337","udp%3A%2F%2Ftracker.coppersurfer.tk%3A6969","udp%3A%2F%2Fexodus.desync.com%3A6969"],"infoHash":"b55c2aef956e0f59a9ee521c3317b764f7409857","infoHashBuffer":{"type":"Buffer","data":[181,92,42,239,149,110,15,89,169,238,82,28,51,23,183,100,247,64,152,87]},"announce":[],"urlList":[]}}